<?xml version="1.0" encoding="utf-8"?>
<!-- Generator: Adobe Illustrator 26.5.3, SVG Export Plug-In . SVG Version: 6.00 Build 0)  -->
<!DOCTYPE svg PUBLIC "-//W3C//DTD SVG 1.1//EN" "http://www.w3.org/Graphics/SVG/1.1/DTD/svg11.dtd" [
	<!ENTITY ns_extend "http://ns.adobe.com/Extensibility/1.0/">
	<!ENTITY ns_ai "http://ns.adobe.com/AdobeIllustrator/10.0/">
	<!ENTITY ns_graphs "http://ns.adobe.com/Graphs/1.0/">
	<!ENTITY ns_vars "http://ns.adobe.com/Variables/1.0/">
	<!ENTITY ns_imrep "http://ns.adobe.com/ImageReplacement/1.0/">
	<!ENTITY ns_sfw "http://ns.adobe.com/SaveForWeb/1.0/">
	<!ENTITY ns_custom "http://ns.adobe.com/GenericCustomNamespace/1.0/">
	<!ENTITY ns_adobe_xpath "http://ns.adobe.com/XPath/1.0/">
]>
<svg version="1.1" id="Snaps_BorderLine" xmlns:x="&ns_extend;" xmlns:i="&ns_ai;" xmlns:graph="&ns_graphs;"
	 xmlns="http://www.w3.org/2000/svg" xmlns:xlink="http://www.w3.org/1999/xlink" x="0px" y="0px" viewBox="0 0 893.6 100"
	 style="enable-background:new 0 0 893.6 100;" xml:space="preserve">
<style type="text/css">
	.Round_x0020_Corners_x0020_2_x0020_pt{fill:#FFFFFF;stroke:#231F20;stroke-miterlimit:10;}
	.Live_x0020_Reflect_x0020_X{fill:none;}
	.Bevel_x0020_Soft{fill:url(#SVGID_1_);}
	.Dusk{fill:#FFFFFF;}
	.Foliage_GS{fill:#FFDD00;}
	.Pompadour_GS{fill-rule:evenodd;clip-rule:evenodd;fill:#44ACE1;}
	.st0{fill:#37474F;}
	.st1{fill:#90A4AE;}
	.st2{opacity:0.5;fill:#90A4AE;}
	.st0_BACKUP{fill:#CBDDEF;}
	.st1_BACKUP{fill:#DEE9F5;}
	.st2_BACKUP{opacity:0.5;fill:#DEE9F5;}
	.st3{fill:#9E9E9E;}
</style>
<metadata>
	<sfw  xmlns="&ns_sfw;">
		<slices></slices>
		<sliceSourceBounds  bottomLeftOrigin="true" height="131.8" width="893.6" x="-52" y="-575.9"></sliceSourceBounds>
		<optimizationSettings>
			<targetSettings  fileFormat="GIFFormat" targetSettingsID="0">

					<GIFFormat  autoReduce="false" ditherAlgorithm="none" ditherPercent="88" includeCaption="false" interlaced="true" lossy="0" matteColor="#FFFFFF" noMatteColor="false" numColors="20" reductionAlgorithm="selective" rolloverMasterPalette="false" transparency="true" webShiftPercent="0">
					<colorTable  isExact="false"></colorTable>
					<lockedColors></lockedColors>
					<colorShiftEntries></colorShiftEntries>
				</GIFFormat>
			</targetSettings>
		</optimizationSettings>
	</sfw>
</metadata>
<linearGradient id="SVGID_1_" gradientUnits="userSpaceOnUse" x1="52.048" y1="-444.0815" x2="52.7551" y2="-443.3745">
	<stop  offset="0" style="stop-color:#DEDFE3"/>
	<stop  offset="0.1783" style="stop-color:#DADBDF"/>
	<stop  offset="0.3611" style="stop-color:#CECFD3"/>
	<stop  offset="0.546" style="stop-color:#B9BCBF"/>
	<stop  offset="0.7324" style="stop-color:#9CA0A2"/>
	<stop  offset="0.9181" style="stop-color:#787D7E"/>
	<stop  offset="1" style="stop-color:#656B6C"/>
</linearGradient>
<path class="st0" d="M187.6,131.8"/>
<path class="st0" d="M316.2,100V53.6H306V36.1h-20.2V51h-6.2V23.5h-1.3v-1.9H278v1.9h-4.9v-1.9h-0.2v1.9H266v-1.9h-0.2v1.9h-4.3
	v-1.9h-0.2v1.9h-1.8v25.7h-6.8V45l-8.1,0v-6.7h-1.6V37h-0.2v1.3h-6.2v0h-1.2V37H235v1.3h-1.5v13.4h-9.6v4.9h-5.3v-2.9h-4.9V42.4
	h-2.5v0.1h-0.4v-0.1h-5.9v-4.5h-0.6v4.5h-3.9v-0.1h0V41h0v-1.2h0v-2h0v-1.3h0v-2h0v-1.3h0v-2h0V30h0v-2h0v-1.7h0v-2h0V23h-1.2v-1.5
	H199V23h-8.6v-1.5h-0.2V23h-1.6v10.4l-1.1,0v0h0v-2h0V30h0v-2h0v-1.4h0v-2h0v0H177v0h-1.8c-0.1,0.1-0.2,0.1-0.3,0.2v11.3h-7.6V51
	h-6.2V23.5h-1.3v-1.9h-0.2v1.9h-4.9v-1.9h-0.2v1.9h-6.9v-1.9h-0.2v1.9h-4.3v-1.9h-0.2v1.9h-1.8v25.7h-6.8V45l-8.1,0v-6.7h-1.6V37
	h-0.2v1.3H118v0h-1.2V37h-0.2v1.3H115v13.4h-9.6v4.9h-5.3v-2.9h-4.9V42.4h-2.5v-5.3h-0.4v5.3h-5.9v-9.9h-0.6v9.9h-3.9v-0.1h0V41h0
	v-1.2h0v-2h0v-1.3h0v-2h0v-1.3h0v-2h0V30h0v-2h0v-1.7h0v-2h0V23h-1.2v-1.5h-0.2V23h-8.6v-1.5h-0.2V23h-1.6v10.4l-1.1,0v0h0v-2h0V30
	h0v-2h0v-1.4h0v-2h0v0H58.6v0h-1.8c-0.1,0.1-0.2,0.1-0.3,0.2v11.3H43.7V51h-6.2V23.5h-1.3v-1.9h-0.2v1.9H31v-1.9h-0.2v1.9h-6.9v-1.9
	h-0.2v1.9h-6.4v25.7h-6.8V45l-8.1,0v-6.7H0.8l0,0H0.5l0,0H0V100"/>
<g>

		<rect x="140.9" y="23.5" transform="matrix(-1 -1.224647e-16 1.224647e-16 -1 297.2404 51.3661)" class="st1" width="15.4" height="4.3"/>

		<rect x="140.9" y="30.2" transform="matrix(-1 -1.224647e-16 1.224647e-16 -1 297.2404 64.7528)" class="st1" width="15.4" height="4.3"/>

		<rect x="140.9" y="37" transform="matrix(-1 -1.224647e-16 1.224647e-16 -1 297.2404 78.4191)" class="st1" width="15.4" height="4.3"/>

		<rect x="140.9" y="44" transform="matrix(-1 -1.224647e-16 1.224647e-16 -1 297.2404 92.3028)" class="st1" width="15.4" height="4.3"/>

		<rect x="140.9" y="50.7" transform="matrix(-1 -1.224647e-16 1.224647e-16 -1 297.2404 105.699)" class="st1" width="15.4" height="4.3"/>
	<g>

			<rect x="74.7" y="23" transform="matrix(-1 -1.224647e-16 1.224647e-16 -1 156.5632 48.5695)" class="st1" width="7.2" height="2.6"/>

			<rect x="74.7" y="27" transform="matrix(-1 -1.224647e-16 1.224647e-16 -1 156.5632 56.6994)" class="st1" width="7.2" height="2.6"/>

			<rect x="74.7" y="31.2" transform="matrix(-1 -1.224647e-16 1.224647e-16 -1 156.5632 64.9991)" class="st1" width="7.2" height="2.6"/>

			<rect x="74.7" y="35.4" transform="matrix(-1 -1.224647e-16 1.224647e-16 -1 156.5632 73.4309)" class="st1" width="7.2" height="2.6"/>

			<rect x="74.7" y="39.5" transform="matrix(-1 -1.224647e-16 1.224647e-16 -1 156.5632 81.5665)" class="st1" width="7.2" height="2.6"/>
	</g>
	<g>

			<rect x="74.7" y="43.9" transform="matrix(-1 -1.224647e-16 1.224647e-16 -1 156.5632 90.5206)" class="st1" width="7.2" height="2.6"/>

			<rect x="74.7" y="48" transform="matrix(-1 -1.224647e-16 1.224647e-16 -1 156.5632 98.6504)" class="st1" width="7.2" height="2.6"/>

			<rect x="74.7" y="52.2" transform="matrix(-1 -1.224647e-16 1.224647e-16 -1 156.5632 106.95)" class="st1" width="7.2" height="2.6"/>

			<rect x="74.7" y="56.4" transform="matrix(-1 -1.224647e-16 1.224647e-16 -1 156.5632 115.3817)" class="st1" width="7.2" height="2.6"/>

			<rect x="74.7" y="60.4" transform="matrix(-1 -1.224647e-16 1.224647e-16 -1 156.5632 123.5175)" class="st1" width="7.2" height="2.6"/>
	</g>
	<g>

			<rect x="61.4" y="24.7" transform="matrix(-1 -1.224647e-16 1.224647e-16 -1 130.4205 52.0333)" class="st1" width="7.7" height="2.6"/>

			<rect x="61.4" y="28.8" transform="matrix(-1 -1.224647e-16 1.224647e-16 -1 130.4205 60.1632)" class="st1" width="7.7" height="2.6"/>

			<rect x="61.4" y="32.9" transform="matrix(-1 -1.224647e-16 1.224647e-16 -1 130.4205 68.4629)" class="st1" width="7.7" height="2.6"/>

			<rect x="61.4" y="37.1" transform="matrix(-1 -1.224647e-16 1.224647e-16 -1 130.4205 76.8946)" class="st1" width="7.7" height="2.6"/>

			<rect x="61.4" y="41.2" transform="matrix(-1 -1.224647e-16 1.224647e-16 -1 130.4205 85.0303)" class="st1" width="7.7" height="2.6"/>
	</g>
	<g>

			<rect x="61.4" y="45.4" transform="matrix(-1 -1.224647e-16 1.224647e-16 -1 130.4205 93.5122)" class="st1" width="7.7" height="2.6"/>

			<rect x="61.4" y="49.5" transform="matrix(-1 -1.224647e-16 1.224647e-16 -1 130.4205 101.6421)" class="st1" width="7.7" height="2.6"/>

			<rect x="61.4" y="53.7" transform="matrix(-1 -1.224647e-16 1.224647e-16 -1 130.4205 109.9418)" class="st1" width="7.7" height="2.6"/>

			<rect x="61.4" y="57.9" transform="matrix(-1 -1.224647e-16 1.224647e-16 -1 130.4205 118.3736)" class="st1" width="7.7" height="2.6"/>

			<rect x="61.4" y="61.9" transform="matrix(-1 -1.224647e-16 1.224647e-16 -1 130.4205 126.5092)" class="st1" width="7.7" height="2.6"/>
	</g>
	<g>

			<rect x="61.4" y="66.6" transform="matrix(-1 -1.224647e-16 1.224647e-16 -1 130.4205 135.8398)" class="st1" width="7.7" height="2.6"/>

			<rect x="61.4" y="70.7" transform="matrix(-1 -1.224647e-16 1.224647e-16 -1 130.4205 143.9696)" class="st1" width="7.7" height="2.6"/>

			<rect x="61.4" y="74.8" transform="matrix(-1 -1.224647e-16 1.224647e-16 -1 130.4205 152.2693)" class="st1" width="7.7" height="2.6"/>

			<rect x="61.4" y="79" transform="matrix(-1 -1.224647e-16 1.224647e-16 -1 130.4205 160.701)" class="st1" width="7.7" height="2.6"/>

			<rect x="61.4" y="83.1" transform="matrix(-1 -1.224647e-16 1.224647e-16 -1 130.4205 168.8368)" class="st1" width="7.7" height="2.6"/>
	</g>

		<rect x="17.3" y="23.5" transform="matrix(-1 -1.224647e-16 1.224647e-16 -1 48.5752 51.3661)" class="st1" width="14.1" height="4.3"/>

		<rect x="17.3" y="30.2" transform="matrix(-1 -1.224647e-16 1.224647e-16 -1 48.5752 64.7528)" class="st1" width="14.1" height="4.3"/>

		<rect x="17.3" y="37" transform="matrix(-1 -1.224647e-16 1.224647e-16 -1 48.5752 78.4191)" class="st1" width="14.1" height="4.3"/>

		<rect x="17.3" y="44" transform="matrix(-1 -1.224647e-16 1.224647e-16 -1 48.5752 92.3028)" class="st1" width="14.1" height="4.3"/>

		<rect x="17.3" y="50.7" transform="matrix(-1 -1.224647e-16 1.224647e-16 -1 48.5752 105.699)" class="st1" width="14.1" height="4.3"/>

		<rect x="265.6" y="23.5" transform="matrix(-1 -1.224647e-16 1.224647e-16 -1 545.2369 51.3661)" class="st2" width="13.9" height="4.3"/>

		<rect x="265.6" y="30.1" transform="matrix(-1 -1.224647e-16 1.224647e-16 -1 545.2369 64.4683)" class="st2" width="13.9" height="4.3"/>

		<rect x="265.6" y="36.9" transform="matrix(-1 -1.224647e-16 1.224647e-16 -1 545.2369 78.1345)" class="st2" width="13.9" height="4.3"/>

		<rect x="265.6" y="43.8" transform="matrix(-1 -1.224647e-16 1.224647e-16 -1 545.2369 92.0183)" class="st2" width="13.9" height="4.3"/>

		<rect x="265.6" y="50.5" transform="matrix(-1 -1.224647e-16 1.224647e-16 -1 545.2369 105.4145)" class="st2" width="13.9" height="4.3"/>
	<g>

			<rect x="192.7" y="23" transform="matrix(-1 -1.224647e-16 1.224647e-16 -1 393.1426 48.5695)" class="st1" width="7.7" height="2.6"/>

			<rect x="192.7" y="27" transform="matrix(-1 -1.224647e-16 1.224647e-16 -1 393.1426 56.6994)" class="st1" width="7.7" height="2.6"/>

			<rect x="192.7" y="31.2" transform="matrix(-1 -1.224647e-16 1.224647e-16 -1 393.1426 64.9991)" class="st1" width="7.7" height="2.6"/>

			<rect x="192.7" y="35.4" transform="matrix(-1 -1.224647e-16 1.224647e-16 -1 393.1426 73.4309)" class="st1" width="7.7" height="2.6"/>

			<rect x="192.7" y="39.5" transform="matrix(-1 -1.224647e-16 1.224647e-16 -1 393.1426 81.5665)" class="st1" width="7.7" height="2.6"/>
	</g>
	<g>

			<rect x="192.7" y="43.9" transform="matrix(-1 -1.224647e-16 1.224647e-16 -1 393.1426 90.5206)" class="st1" width="7.7" height="2.6"/>

			<rect x="192.7" y="48" transform="matrix(-1 -1.224647e-16 1.224647e-16 -1 393.1426 98.6504)" class="st1" width="7.7" height="2.6"/>

			<rect x="192.7" y="52.2" transform="matrix(-1 -1.224647e-16 1.224647e-16 -1 393.1426 106.95)" class="st1" width="7.7" height="2.6"/>

			<rect x="192.7" y="56.4" transform="matrix(-1 -1.224647e-16 1.224647e-16 -1 393.1426 115.3817)" class="st1" width="7.7" height="2.6"/>

			<rect x="192.7" y="60.4" transform="matrix(-1 -1.224647e-16 1.224647e-16 -1 393.1426 123.5175)" class="st1" width="7.7" height="2.6"/>
	</g>
	<g>

			<rect x="178.6" y="24.7" transform="matrix(-1 -1.224647e-16 1.224647e-16 -1 365.945 52.0333)" class="st1" width="8.8" height="2.6"/>

			<rect x="178.6" y="28.8" transform="matrix(-1 -1.224647e-16 1.224647e-16 -1 365.945 60.1632)" class="st1" width="8.8" height="2.6"/>

			<rect x="178.6" y="32.9" transform="matrix(-1 -1.224647e-16 1.224647e-16 -1 365.945 68.4629)" class="st1" width="8.8" height="2.6"/>

			<rect x="178.6" y="37.1" transform="matrix(-1 -1.224647e-16 1.224647e-16 -1 365.945 76.8946)" class="st1" width="8.8" height="2.6"/>

			<rect x="178.6" y="41.2" transform="matrix(-1 -1.224647e-16 1.224647e-16 -1 365.945 85.0303)" class="st1" width="8.8" height="2.6"/>
	</g>
	<g>

			<rect x="178.6" y="45.4" transform="matrix(-1 -1.224647e-16 1.224647e-16 -1 365.945 93.5122)" class="st1" width="8.8" height="2.6"/>

			<rect x="178.6" y="49.5" transform="matrix(-1 -1.224647e-16 1.224647e-16 -1 365.945 101.6421)" class="st1" width="8.8" height="2.6"/>

			<rect x="178.6" y="53.7" transform="matrix(-1 -1.224647e-16 1.224647e-16 -1 365.945 109.9418)" class="st1" width="8.8" height="2.6"/>

			<rect x="178.6" y="57.9" transform="matrix(-1 -1.224647e-16 1.224647e-16 -1 365.945 118.3736)" class="st1" width="8.8" height="2.6"/>

			<rect x="178.6" y="61.9" transform="matrix(-1 -1.224647e-16 1.224647e-16 -1 365.945 126.5092)" class="st1" width="8.8" height="2.6"/>
	</g>
	<g>

			<rect x="178.6" y="66.6" transform="matrix(-1 -1.224647e-16 1.224647e-16 -1 365.945 135.8398)" class="st1" width="8.8" height="2.6"/>

			<rect x="178.6" y="70.7" transform="matrix(-1 -1.224647e-16 1.224647e-16 -1 365.945 143.9696)" class="st1" width="8.8" height="2.6"/>

			<rect x="178.6" y="74.8" transform="matrix(-1 -1.224647e-16 1.224647e-16 -1 365.945 152.2693)" class="st1" width="8.8" height="2.6"/>

			<rect x="178.6" y="79" transform="matrix(-1 -1.224647e-16 1.224647e-16 -1 365.945 160.701)" class="st1" width="8.8" height="2.6"/>

			<rect x="178.6" y="83.1" transform="matrix(-1 -1.224647e-16 1.224647e-16 -1 365.945 168.8368)" class="st1" width="8.8" height="2.6"/>
	</g>
</g>
<g>
	<path class="st0" d="M404.8,100"/>
	<path class="st0" d="M276.2,100V53.6h10.1V36.1h20.2V51h6.2V23.5h1.3v-1.9h0.2v1.9h4.9v-1.9h0.2v1.9h6.9v-1.9h0.2v1.9h4.3v-1.9h0.2
		v1.9h1.8v25.7h6.8V45l8.1,0v-6.7h1.6V37h0.2v1.3h6.2v0h1.2V37h0.2v1.3h1.5v13.4h9.6v4.9h5.3v-2.9h4.9V42.4h2.5v0.1h0.4v-0.1h5.9
		v-4.5h0.6v4.5h3.9v-0.1h0V41h0v-1.2h0v-2h0v-1.3h0v-2h0v-1.3h0v-2h0V30h0v-2h0v-1.7h0v-2h0V23h1.2v-1.5h0.2V23h8.6v-1.5h0.2V23h1.6
		v10.4l1.1,0v0h0v-2h0V30h0v-2h0v-1.4h0v-2h0v0h10.5v0h1.8c0.1,0.1,0.2,0.1,0.3,0.2v11.3h7.6V51h6.2V23.5h1.3v-1.9h0.2v1.9h4.9v-1.9
		h0.2v1.9h6.9v-1.9h0.2v1.9h4.3v-1.9h0.2v1.9h1.8v25.7h6.8V45l8.1,0v-6.7h1.6V37h0.2v1.3h6.2v0h1.2V37h0.2v1.3h1.5v13.4h9.6v4.9h5.3
		v-2.9h4.9V42.4h2.5v-5.3h0.4v5.3h5.9v-9.9h0.6v9.9h3.9v-0.1h0V41h0v-1.2h0v-2h0v-1.3h0v-2h0v-1.3h0v-2h0V30h0v-2h0v-1.7h0v-2h0V23
		h1.2v-1.5h0.2V23h8.6v-1.5h0.2V23h1.6v10.4l1.1,0v0h0v-2h0V30h0v-2h0v-1.4h0v-2h0v0h10.5v0h1.8c0.1,0.1,0.2,0.1,0.3,0.2v11.3h12.8
		V51h6.2V23.5h1.3v-1.9h0.2v1.9h4.9v-1.9h0.2v1.9h6.9v-1.9h0.2v1.9h6.4v25.7h6.8V45l8.1,0v-6.7h1.6V37h0.2v1.3h2.2V100h-65.4"/>
	<g>
		<rect x="436" y="23.5" class="st1" width="15.4" height="4.3"/>
		<rect x="436" y="30.2" class="st1" width="15.4" height="4.3"/>
		<rect x="436" y="37" class="st1" width="15.4" height="4.3"/>
		<rect x="436" y="44" class="st1" width="15.4" height="4.3"/>
		<rect x="436" y="50.7" class="st1" width="15.4" height="4.3"/>
		<g>
			<rect x="510.4" y="23" class="st1" width="7.2" height="2.6"/>
			<rect x="510.4" y="27" class="st1" width="7.2" height="2.6"/>
			<rect x="510.4" y="31.2" class="st1" width="7.2" height="2.6"/>
			<rect x="510.4" y="35.4" class="st1" width="7.2" height="2.6"/>
			<rect x="510.4" y="39.5" class="st1" width="7.2" height="2.6"/>
		</g>
		<g>
			<rect x="510.4" y="43.9" class="st1" width="7.2" height="2.6"/>
			<rect x="510.4" y="48" class="st1" width="7.2" height="2.6"/>
			<rect x="510.4" y="52.2" class="st1" width="7.2" height="2.6"/>
			<rect x="510.4" y="56.4" class="st1" width="7.2" height="2.6"/>
			<rect x="510.4" y="60.4" class="st1" width="7.2" height="2.6"/>
		</g>
		<g>
			<rect x="523.2" y="24.7" class="st1" width="7.7" height="2.6"/>
			<rect x="523.2" y="28.8" class="st1" width="7.7" height="2.6"/>
			<rect x="523.2" y="32.9" class="st1" width="7.7" height="2.6"/>
			<rect x="523.2" y="37.1" class="st1" width="7.7" height="2.6"/>
			<rect x="523.2" y="41.2" class="st1" width="7.7" height="2.6"/>
		</g>
		<g>
			<rect x="523.2" y="45.4" class="st1" width="7.7" height="2.6"/>
			<rect x="523.2" y="49.5" class="st1" width="7.7" height="2.6"/>
			<rect x="523.2" y="53.7" class="st1" width="7.7" height="2.6"/>
			<rect x="523.2" y="57.9" class="st1" width="7.7" height="2.6"/>
			<rect x="523.2" y="61.9" class="st1" width="7.7" height="2.6"/>
		</g>
		<g>
			<rect x="523.2" y="66.6" class="st1" width="7.7" height="2.6"/>
			<rect x="523.2" y="70.7" class="st1" width="7.7" height="2.6"/>
			<rect x="523.2" y="74.8" class="st1" width="7.7" height="2.6"/>
			<rect x="523.2" y="79" class="st1" width="7.7" height="2.6"/>
			<rect x="523.2" y="83.1" class="st1" width="7.7" height="2.6"/>
		</g>
		<rect x="561" y="23.5" class="st1" width="14.1" height="4.3"/>
		<rect x="561" y="30.2" class="st1" width="14.1" height="4.3"/>
		<rect x="561" y="37" class="st1" width="14.1" height="4.3"/>
		<rect x="561" y="44" class="st1" width="14.1" height="4.3"/>
		<rect x="561" y="50.7" class="st1" width="14.1" height="4.3"/>
		<rect x="312.7" y="23.5" class="st2" width="13.9" height="4.3"/>
		<rect x="312.7" y="30.1" class="st2" width="13.9" height="4.3"/>
		<rect x="312.7" y="36.9" class="st2" width="13.9" height="4.3"/>
		<rect x="312.7" y="43.8" class="st2" width="13.9" height="4.3"/>
		<rect x="312.7" y="50.5" class="st2" width="13.9" height="4.3"/>
		<g>
			<rect x="391.9" y="23" class="st1" width="7.7" height="2.6"/>
			<rect x="391.9" y="27" class="st1" width="7.7" height="2.6"/>
			<rect x="391.9" y="31.2" class="st1" width="7.7" height="2.6"/>
			<rect x="391.9" y="35.4" class="st1" width="7.7" height="2.6"/>
			<rect x="391.9" y="39.5" class="st1" width="7.7" height="2.6"/>
		</g>
		<g>
			<rect x="391.9" y="43.9" class="st1" width="7.7" height="2.6"/>
			<rect x="391.9" y="48" class="st1" width="7.7" height="2.6"/>
			<rect x="391.9" y="52.2" class="st1" width="7.7" height="2.6"/>
			<rect x="391.9" y="56.4" class="st1" width="7.7" height="2.6"/>
			<rect x="391.9" y="60.4" class="st1" width="7.7" height="2.6"/>
		</g>
		<g>
			<rect x="404.9" y="24.7" class="st1" width="8.8" height="2.6"/>
			<rect x="404.9" y="28.8" class="st1" width="8.8" height="2.6"/>
			<rect x="404.9" y="32.9" class="st1" width="8.8" height="2.6"/>
			<rect x="404.9" y="37.1" class="st1" width="8.8" height="2.6"/>
			<rect x="404.9" y="41.2" class="st1" width="8.8" height="2.6"/>
		</g>
		<g>
			<rect x="404.9" y="45.4" class="st1" width="8.8" height="2.6"/>
			<rect x="404.9" y="49.5" class="st1" width="8.8" height="2.6"/>
			<rect x="404.9" y="53.7" class="st1" width="8.8" height="2.6"/>
			<rect x="404.9" y="57.9" class="st1" width="8.8" height="2.6"/>
			<rect x="404.9" y="61.9" class="st1" width="8.8" height="2.6"/>
		</g>
		<g>
			<rect x="404.9" y="66.6" class="st1" width="8.8" height="2.6"/>
			<rect x="404.9" y="70.7" class="st1" width="8.8" height="2.6"/>
			<rect x="404.9" y="74.8" class="st1" width="8.8" height="2.6"/>
			<rect x="404.9" y="79" class="st1" width="8.8" height="2.6"/>
			<rect x="404.9" y="83.1" class="st1" width="8.8" height="2.6"/>
		</g>
	</g>
</g>
<g>
	<path class="st0" d="M579.3,100V53.6h10.1V36.1h20.2V51h6.2V23.5h1.3v-1.9h0.2v1.9h4.9v-1.9h0.2v1.9h6.9v-1.9h0.2v1.9h4.3v-1.9h0.2
		v1.9h1.8v25.7h6.8V45l8.1,0v-6.7h1.6V37h0.2v1.3h6.2v0h1.2V37h0.2v1.3h1.5v13.4h9.6v4.9h5.3v-2.9h4.9V42.4h2.5v0.1h0.4v-0.1h5.9
		v-4.5h0.6v4.5h3.9v-0.1h0V41h0v-1.2h0v-2h0v-1.3h0v-2h0v-1.3h0v-2h0V30h0v-2h0v-1.7h0v-2h0V23h1.2v-1.5h0.2V23h8.6v-1.5h0.2V23h1.6
		v10.4l1.1,0v0h0v-2h0V30h0v-2h0v-1.4h0v-2h0v0h10.5v0h1.8c0.1,0.1,0.2,0.1,0.3,0.2v11.3h7.6V51h6.2V23.5h1.3v-1.9h0.2v1.9h4.9v-1.9
		h0.2v1.9h6.9v-1.9h0.2v1.9h4.3v-1.9h0.2v1.9h1.8v25.7h6.8V45l8.1,0v-6.7h1.6V37h0.2v1.3h6.2v0h1.2V37h0.2v1.3h1.5v13.4h9.6v4.9h5.3
		v-2.9h4.9V42.4h2.5v-5.3h0.4v5.3h5.9v-9.9h0.6v9.9h3.9v-0.1h0V41h0v-1.2h0v-2h0v-1.3h0v-2h0v-1.3h0v-2h0V30h0v-2h0v-1.7h0v-2h0V23
		h1.2v-1.5h0.2V23h8.6v-1.5h0.2V23h1.6v10.4l1.1,0v0h0v-2h0V30h0v-2h0v-1.4h0v-2h0v0h10.5v0h1.8c0.1,0.1,0.2,0.1,0.3,0.2v11.3h12.8
		V51h6.2V23.5h1.3v-1.9h0.2v1.9h4.9v-1.9h0.2v1.9h6.9v-1.9h0.2v1.9h6.4v25.7h6.8V45l8.1,0v-6.7h0.6l0,0l0,0l0,0l0,0V100"/>
	<g>
		<rect x="739.1" y="23.5" class="st1" width="15.4" height="4.3"/>
		<rect x="739.1" y="30.2" class="st1" width="15.4" height="4.3"/>
		<rect x="739.1" y="37" class="st1" width="15.4" height="4.3"/>
		<rect x="739.1" y="44" class="st1" width="15.4" height="4.3"/>
		<rect x="739.1" y="50.7" class="st1" width="15.4" height="4.3"/>
		<g>
			<rect x="813.5" y="23" class="st1" width="7.2" height="2.6"/>
			<rect x="813.5" y="27" class="st1" width="7.2" height="2.6"/>
			<rect x="813.5" y="31.2" class="st1" width="7.2" height="2.6"/>
			<rect x="813.5" y="35.4" class="st1" width="7.2" height="2.6"/>
			<rect x="813.5" y="39.5" class="st1" width="7.2" height="2.6"/>
		</g>
		<g>
			<rect x="813.5" y="43.9" class="st1" width="7.2" height="2.6"/>
			<rect x="813.5" y="48" class="st1" width="7.2" height="2.6"/>
			<rect x="813.5" y="52.2" class="st1" width="7.2" height="2.6"/>
			<rect x="813.5" y="56.4" class="st1" width="7.2" height="2.6"/>
			<rect x="813.5" y="60.4" class="st1" width="7.2" height="2.6"/>
		</g>
		<g>
			<rect x="826.3" y="24.7" class="st1" width="7.7" height="2.6"/>
			<rect x="826.3" y="28.8" class="st1" width="7.7" height="2.6"/>
			<rect x="826.3" y="32.9" class="st1" width="7.7" height="2.6"/>
			<rect x="826.3" y="37.1" class="st1" width="7.7" height="2.6"/>
			<rect x="826.3" y="41.2" class="st1" width="7.7" height="2.6"/>
		</g>
		<g>
			<rect x="826.3" y="45.4" class="st1" width="7.7" height="2.6"/>
			<rect x="826.3" y="49.5" class="st1" width="7.7" height="2.6"/>
			<rect x="826.3" y="53.7" class="st1" width="7.7" height="2.6"/>
			<rect x="826.3" y="57.9" class="st1" width="7.7" height="2.6"/>
			<rect x="826.3" y="61.9" class="st1" width="7.7" height="2.6"/>
		</g>
		<g>
			<rect x="826.3" y="66.6" class="st1" width="7.7" height="2.6"/>
			<rect x="826.3" y="70.7" class="st1" width="7.7" height="2.6"/>
			<rect x="826.3" y="74.8" class="st1" width="7.7" height="2.6"/>
			<rect x="826.3" y="79" class="st1" width="7.7" height="2.6"/>
			<rect x="826.3" y="83.1" class="st1" width="7.7" height="2.6"/>
		</g>
		<rect x="864.1" y="23.5" class="st1" width="14.1" height="4.3"/>
		<rect x="864.1" y="30.2" class="st1" width="14.1" height="4.3"/>
		<rect x="864.1" y="37" class="st1" width="14.1" height="4.3"/>
		<rect x="864.1" y="44" class="st1" width="14.1" height="4.3"/>
		<rect x="864.1" y="50.7" class="st1" width="14.1" height="4.3"/>
		<rect x="615.8" y="23.5" class="st2" width="13.9" height="4.3"/>
		<rect x="615.8" y="30.1" class="st2" width="13.9" height="4.3"/>
		<rect x="615.8" y="36.9" class="st2" width="13.9" height="4.3"/>
		<rect x="615.8" y="43.8" class="st2" width="13.9" height="4.3"/>
		<rect x="615.8" y="50.5" class="st2" width="13.9" height="4.3"/>
		<g>
			<rect x="695" y="23" class="st1" width="7.7" height="2.6"/>
			<rect x="695" y="27" class="st1" width="7.7" height="2.6"/>
			<rect x="695" y="31.2" class="st1" width="7.7" height="2.6"/>
			<rect x="695" y="35.4" class="st1" width="7.7" height="2.6"/>
			<rect x="695" y="39.5" class="st1" width="7.7" height="2.6"/>
		</g>
		<g>
			<rect x="695" y="43.9" class="st1" width="7.7" height="2.6"/>
			<rect x="695" y="48" class="st1" width="7.7" height="2.6"/>
			<rect x="695" y="52.2" class="st1" width="7.7" height="2.6"/>
			<rect x="695" y="56.4" class="st1" width="7.7" height="2.6"/>
			<rect x="695" y="60.4" class="st1" width="7.7" height="2.6"/>
		</g>
		<g>
			<rect x="708.1" y="24.7" class="st1" width="8.8" height="2.6"/>
			<rect x="708.1" y="28.8" class="st1" width="8.8" height="2.6"/>
			<rect x="708.1" y="32.9" class="st1" width="8.8" height="2.6"/>
			<rect x="708.1" y="37.1" class="st1" width="8.8" height="2.6"/>
			<rect x="708.1" y="41.2" class="st1" width="8.8" height="2.6"/>
		</g>
		<g>
			<rect x="708.1" y="45.4" class="st1" width="8.8" height="2.6"/>
			<rect x="708.1" y="49.5" class="st1" width="8.8" height="2.6"/>
			<rect x="708.1" y="53.7" class="st1" width="8.8" height="2.6"/>
			<rect x="708.1" y="57.9" class="st1" width="8.8" height="2.6"/>
			<rect x="708.1" y="61.9" class="st1" width="8.8" height="2.6"/>
		</g>
		<g>
			<rect x="708.1" y="66.6" class="st1" width="8.8" height="2.6"/>
			<rect x="708.1" y="70.7" class="st1" width="8.8" height="2.6"/>
			<rect x="708.1" y="74.8" class="st1" width="8.8" height="2.6"/>
			<rect x="708.1" y="79" class="st1" width="8.8" height="2.6"/>
			<rect x="708.1" y="83.1" class="st1" width="8.8" height="2.6"/>
		</g>
	</g>
</g>
<rect y="67.2" class="st3" width="893.6" height="32.8"/>
</svg>
